<?xml version="1.0" encoding="UTF-8" standalone="no"?>
<!-- Created with Inkscape (http://www.inkscape.org/) -->

<svg
   width="400mm"
   height="400mm"
   viewBox="0 0 400 400"
   version="1.1"
   id="svg1"
   xml:space="preserve"
   inkscape:export-filename="ble.pdf"
   inkscape:export-xdpi="96"
   inkscape:export-ydpi="96"
   inkscape:version="1.3.2 (091e20e, 2023-11-25, custom)"
   sodipodi:docname="ble.svg"
   xmlns:inkscape="http://www.inkscape.org/namespaces/inkscape"
   xmlns:sodipodi="http://sodipodi.sourceforge.net/DTD/sodipodi-0.dtd"
   xmlns="http://www.w3.org/2000/svg"
   xmlns:svg="http://www.w3.org/2000/svg"><sodipodi:namedview
     id="namedview1"
     pagecolor="#ffffff"
     bordercolor="#000000"
     borderopacity="0.25"
     inkscape:showpageshadow="2"
     inkscape:pageopacity="0.0"
     inkscape:pagecheckerboard="0"
     inkscape:deskcolor="#d1d1d1"
     inkscape:document-units="mm"
     showgrid="true"
     inkscape:zoom="1.0242632"
     inkscape:cx="499.87151"
     inkscape:cy="317.78941"
     inkscape:window-width="1920"
     inkscape:window-height="1009"
     inkscape:window-x="-8"
     inkscape:window-y="-8"
     inkscape:window-maximized="1"
     inkscape:current-layer="svg1"><inkscape:grid
       id="grid1"
       units="mm"
       originx="0"
       originy="0"
       spacingx="0.99999999"
       spacingy="0.99999999"
       empcolor="#0099e5"
       empopacity="0.30196078"
       color="#0099e5"
       opacity="0.14902"
       empspacing="5"
       dotted="false"
       gridanglex="30"
       gridanglez="30"
       visible="true" /></sodipodi:namedview><defs
     id="defs1"><style
       id="style1">
      .cls-1 {
        fill: none;
        stroke: blue;
        stroke-miterlimit: 10;
        stroke-width: .28px;
      }
    </style><style
       id="style1-2">
      .cls-1 {
        fill: none;
        stroke: blue;
        stroke-miterlimit: 10;
        stroke-width: .28px;
      }
    </style><style
       id="style1-3">
      .cls-1 {
        fill: none;
        stroke: blue;
        stroke-miterlimit: 10;
        stroke-width: .28px;
      }
    </style><style
       id="style1-4">
      .cls-1 {
        fill: none;
        stroke: blue;
        stroke-miterlimit: 10;
        stroke-width: .28px;
      }
    </style><style
       id="style1-6">
      .cls-1 {
        fill: none;
        stroke: blue;
        stroke-miterlimit: 10;
        stroke-width: .28px;
      }
    </style><style
       id="style1-9">
      .cls-1 {
        fill: none;
        stroke: blue;
        stroke-miterlimit: 10;
        stroke-width: .28px;
      }
    </style><style
       id="style1-5">
      .cls-1 {
        fill: none;
        stroke: blue;
        stroke-miterlimit: 10;
        stroke-width: .28px;
      }
    </style><style
       id="style1-25">
      .cls-1 {
        fill: none;
        stroke: blue;
        stroke-miterlimit: 10;
        stroke-width: .28px;
      }
    </style><style
       id="style1-29">
      .cls-1 {
        fill: none;
        stroke: blue;
        stroke-miterlimit: 10;
        stroke-width: .28px;
      }
    </style><style
       id="style1-46">
      .cls-1 {
        fill: none;
        stroke: blue;
        stroke-miterlimit: 10;
        stroke-width: .28px;
      }
    </style><style
       id="style1-39">
      .cls-1 {
        fill: none;
        stroke: blue;
        stroke-miterlimit: 10;
        stroke-width: .28px;
      }
    </style><style
       id="style1-37">
      .cls-1 {
        fill: none;
        stroke: blue;
        stroke-miterlimit: 10;
        stroke-width: .28px;
      }
    </style><style
       id="style1-1">
      .cls-1 {
        fill: none;
        stroke: blue;
        stroke-miterlimit: 10;
        stroke-width: .28px;
      }
    </style><style
       id="style1-16">
      .cls-1 {
        fill: none;
        stroke: blue;
        stroke-miterlimit: 10;
        stroke-width: .28px;
      }
    </style><style
       id="style1-49">
      .cls-1 {
        fill: none;
        stroke: blue;
        stroke-miterlimit: 10;
        stroke-width: .28px;
      }
    </style><style
       id="style1-0">
      .cls-1 {
        fill: none;
        stroke: blue;
        stroke-miterlimit: 10;
        stroke-width: .28px;
      }
    </style></defs><path
     class="cls-1"
     d="m 139.76464,233.80058 c 0,0.66321 -0.53974,1.19942 -1.19942,1.19942 H 130 v 4.99873 h 14.06489 c 0.38804,0 0.69848,-0.31397 0.69848,-0.69848 v -64.01342 l -4.99873,-4.99873 z m 2.50113,-58.11512 c 0.88192,0 1.60157,0.71612 1.60157,1.60157 0,0.88545 -0.71612,1.60157 -1.60157,1.60157 -0.88545,0 -1.60157,-0.71612 -1.60157,-1.60157 0,-0.88545 0.71612,-1.60157 1.60157,-1.60157 z m 0,36.43748 c 0.88192,0 1.60157,0.71612 1.60157,1.60157 0,0.88545 -0.71612,1.60157 -1.60157,1.60157 -0.88545,0 -1.60157,-0.71612 -1.60157,-1.60157 0,-0.88545 0.71612,-1.60157 1.60157,-1.60157 z m -0.64557,23.12752 c 0.88192,0 1.60157,0.71612 1.60157,1.60157 0,0.88545 -0.71612,1.60157 -1.60157,1.60157 -0.88545,0 -1.60157,-0.71612 -1.60157,-1.60157 0,-0.88545 0.71612,-1.60157 1.60157,-1.60157 z"
     id="path1-1"
     style="stroke-width:0.3;stroke-dasharray:none" /><path
     class="cls-1"
     d="m 56.84296,363.4543 3.17845,-18.00532 13.186493,2.32475 c 0.38099,0.067 0.74434,-0.18697 0.81137,-0.56796 l 0.82548,-4.67771 h 22.30204 c 0.38804,0 0.69848,-0.31397 0.69848,-0.69849 v -5.58433 h -4.99873 v 0.0847 c 0,0.6632 -0.53974,1.19941 -1.19942,1.19941 h -20.99679 l -0.59971,3.39364 c -0.11641,0.65262 -0.73729,1.08653 -1.38991,0.97364 l -12.696143,-2.23655 -3.09026,17.51144 c -0.0564,0.31396 -0.2293,0.58912 -0.49387,0.77609 -0.26105,0.18344 -0.58207,0.25399 -0.89604,0.19755 L 13.4383,351.4355 c -0.57502,-0.10231 -0.99128,-0.59971 -0.99128,-1.18178 0,-0.0705 0.007,-0.13758 0.0176,-0.20813 l 3.09379,-17.54319 -3.7076,-0.65615 c -0.57502,-0.1023 -0.99128,-0.59971 -0.99128,-1.18178 0,-0.067 0.007,-0.13758 0.0176,-0.20813 l 3.39716,-19.26823 c 0.0564,-0.31396 0.2293,-0.58912 0.49387,-0.77609 0.26105,-0.18344 0.58207,-0.25399 0.89604,-0.19755 l 2.88565,0.50799 1.0195,-14.5376 v -15.44422 l -5.00226,4.99874 v 10.26909 l -0.61735,8.82628 -2.83273,-0.50093 c -0.38099,-0.067 -0.74434,0.18696 -0.81137,0.56795 L 5,335 c -0.067,0.38099 0.18697,0.74434 0.56796,0.81137 l 4.2014698,0.74081 -3.1819698,18.03707 c -0.067,0.38099 0.18697,0.74434 0.56796,0.81137 l 48.87963,8.62166 c 0.38099,0.067 0.74434,-0.18696 0.81137,-0.56795 v 0 z m 36.261103,-24.05883 c 0,-0.88192 0.71612,-1.60157 1.60157,-1.60157 0.88545,0 1.60157,0.71612 1.60157,1.60157 0,0.88545 -0.71612,1.60157 -1.60157,1.60157 -0.88545,0 -1.60157,-0.71612 -1.60157,-1.60157 z M 11.35343,307.865 c 0,-0.88192 0.71612,-1.60157 1.60157,-1.60157 0.88545,0 1.60157,0.71612 1.60157,1.60157 0,0.88545 -0.71612,1.60157 -1.60157,1.60157 -0.88545,0 -1.60157,-0.71612 -1.60157,-1.60157 z m -2.86448,44.88629 c 0,-0.88192 0.7161198,-1.60157 1.60157,-1.60157 0.88545,0 1.60157,0.71612 1.60157,1.60157 0,0.88545 -0.71612,1.60157 -1.60157,1.60157 -0.8854502,0 -1.60157,-0.71612 -1.60157,-1.60157 z"
     id="path2-3"
     style="stroke-width:0.3;stroke-dasharray:none" /><path
     class="cls-1"
     d="m 132.05664,193.66174 h 3.249 c 0.38805,0 0.69848,-0.31397 0.69848,-0.69849 V 162.3394 c 0,-0.38803 -0.31396,-0.69847 -0.69848,-0.69847 h -3.249 v -38.83631 h -4.99873 v 43.83857 h 2.74807 c 0.6632,0 1.19941,0.53974 1.19941,1.19941 v 19.62453 c 0,0.66319 -0.53974,1.19941 -1.19941,1.19941 h -2.7516 v 39.4219 h 5.00226 z m -3.65821,-30.00651 c 0,-0.88192 0.71612,-1.60157 1.60157,-1.60157 0.88545,0 1.60157,0.71612 1.60157,1.60157 0,0.88545 -0.71612,1.60158 -1.60157,1.60158 -0.88545,0 -1.60157,-0.71612 -1.60157,-1.60158 z m 0,27.94634 C 128.39843,190.71965 129.11455,190 130,190 c 0.88545,0 1.60157,0.71612 1.60157,1.60157 0,0.88545 -0.71612,1.60157 -1.60157,1.60157 -0.88545,0 -1.60157,-0.71611 -1.60157,-1.60157 z"
     id="path3"
     style="stroke-width:0.3;stroke-dasharray:none" /><path
     class="cls-1"
     d="m 83.358525,355.44375 v 0 12.55857 c 0,0.6632 -0.53974,1.19941 -1.19942,1.19941 h -9.81402 c -5.88066,0.0212 -12.19169,0.89251 -18.25225,2.51524 -5.64783,1.51338 -11.532014,3.98629 -17.017568,7.15415 l -0.194023,0.11289 c -0.10583,0.06 -0.211661,0.12347 -0.313964,0.18697 -0.500931,0.29632 -1.001863,0.5997 -1.531016,0.93836 -0.03528,0.0212 -0.04586,0.0282 -0.05644,0.0353 l -0.03528,0.0247 -0.0388,0.0176 -0.02822,0.0212 -6.265172,3.64057 c -0.18344,0.10583 -0.391574,0.16227 -0.603235,0.16227 -0.42685,0 -0.825479,-0.2293 -1.040668,-0.5997 L 25,380 H 10.712861 c -0.663205,0 -1.1994138,-0.53973 -1.1994138,-1.19941 v -16.24147 l -4.998733,5.35856 v 16.3861 c 0,0.38805 0.313964,0.69848 0.698482,0.69848 H 22.110818 l 3.280749,5.69369 c 0.194023,0.33513 0.624401,0.45155 0.959531,0.25399 l 11.038133,-6.41333 0.201079,-0.1023 0.119941,-0.0882 0.01411,-0.007 0.06703,-0.0529 c 0.451544,-0.28574 0.881921,-0.54679 1.312299,-0.80078 l 0.07761,-0.0459 c 0.0635,-0.0388 0.130525,-0.0776 0.218717,-0.127 l 0.179912,-0.10583 c 5.111619,-2.95267 10.576006,-5.25272 15.811086,-6.65322 5.65136,-1.51337 11.52143,-2.32474 16.9576,-2.34591 h 15.31369 c 0.38804,0 0.69848,-0.31396 0.69848,-0.69848 v -13.05597 l -4.99873,-4.99873 v 0 -0.0106 z M 7.6578842,383.44653 c -0.881922,0 -1.60157,-0.71612 -1.60157,-1.60157 0,-0.88545 0.71612,-1.60157 1.60157,-1.60157 0.885449,0 1.60157,0.71612 1.60157,1.60157 0,0.88545 -0.716121,1.60157 -1.60157,1.60157 z M 85.235255,369.47337 c 0.88192,0 1.60157,0.71612 1.60157,1.60157 0,0.88544 -0.71612,1.60157 -1.60157,1.60157 -0.88545,0 -1.60157,-0.71613 -1.60157,-1.60157 0,-0.88545 0.71612,-1.60157 1.60157,-1.60157 z"
     id="path4"
     style="stroke-width:0.3;stroke-dasharray:none" /><path
     class="cls-1"
     d="m 43.243761,385 4.99873,4.99873 h 64.013419 c 0.38451,0 0.69848,-0.31043 0.69848,-0.69848 v -14.06489 h -4.99873 v 8.56523 c 0,0.65967 -0.53621,1.19941 -1.19942,1.19941 z m 6.99893,0.89956 c 0.88545,0 1.60157,0.71612 1.60157,1.60157 0,0.88545 -0.71612,1.60157 -1.60157,1.60157 -0.88545,0 -1.60157,-0.71965 -1.60157,-1.60157 0,-0.88192 0.71612,-1.60157 1.60157,-1.60157 z m 36.43748,0 c 0.88545,0 1.60157,0.71612 1.60157,1.60157 0,0.88545 -0.71612,1.60157 -1.60157,1.60157 -0.88545,0 -1.60157,-0.71965 -1.60157,-1.60157 0,-0.88192 0.71612,-1.60157 1.60157,-1.60157 z m 23.127519,-0.64557 c 0.88545,0 1.60157,0.71612 1.60157,1.60157 0,0.88545 -0.71612,1.60157 -1.60157,1.60157 -0.88545,0 -1.60157,-0.71964 -1.60157,-1.60157 0,-0.88192 0.71612,-1.60157 1.60157,-1.60157 z"
     id="path5"
     style="stroke-width:0.3;stroke-dasharray:none" /><path
     class="cls-1"
     d="m 85.806402,328.50343 c 0.067,0.38099 0.43038,0.63499 0.81137,0.56796 l 48.879628,-8.62167 c 0.38099,-0.067 0.63499,-0.43038 0.56796,-0.81137 l -3.18197,-18.03706 4.20147,-0.74081 c 0.38099,-0.067 0.63499,-0.43038 0.56796,-0.81137 l -5.30564,-30.09822 c -0.067,-0.381 -0.43038,-0.63499 -0.81137,-0.56796 l -2.83273,0.50093 -0.61735,-8.82627 v -10.2691 l -5.00226,-4.99873 v 15.44421 l 1.0195,14.5376 2.88565,-0.50799 c 0.31397,-0.0564 0.63499,0.0141 0.89604,0.19755 0.26457,0.18697 0.43743,0.46213 0.49387,0.77609 l 3.39716,19.26823 c 0.0106,0.0705 0.0176,0.14111 0.0176,0.20813 0,0.58207 -0.41626,1.07948 -0.99128,1.18178 l -3.7076,0.65615 3.09379,17.54318 c 0.0106,0.0706 0.0176,0.13758 0.0176,0.20814 0,0.58206 -0.41626,1.07947 -0.99128,1.18177 l -38.046098,6.70966 c -0.31397,0.0564 -0.63499,-0.0141 -0.89604,-0.19755 -0.26457,-0.18697 -0.43743,-0.46213 -0.49387,-0.77609 l -3.09026,-17.51143 -12.69614,2.23656 c -0.65262,0.11288 -1.2735,-0.32102 -1.38991,-0.97365 l -0.59971,-3.39364 h -20.99679 c -0.65968,0 -1.19942,-0.5362 -1.19942,-1.19941 v -0.0847 h -4.99873 v 5.58433 c 0,0.38452 0.31044,0.69848 0.69848,0.69848 h 22.30204 l 0.82548,4.67771 c 0.067,0.38099 0.43038,0.63499 0.81137,0.56796 l 13.18649,-2.32474 3.17845,18.0053 v 0 z m -37.86266,-22.45725 c -0.88545,0 -1.60157,-0.71612 -1.60157,-1.60157 0,-0.88545 0.71612,-1.60157 1.60157,-1.60157 0.88545,0 1.60157,0.71965 1.60157,1.60157 0,0.88192 -0.71612,1.60157 -1.60157,1.60157 z m 81.750618,-31.53047 c -0.88545,0 -1.60157,-0.71612 -1.60157,-1.60157 0,-0.88545 0.71612,-1.60157 1.60157,-1.60157 0.88545,0 1.60157,0.71965 1.60157,1.60157 0,0.88192 -0.71612,1.60157 -1.60157,1.60157 z m 2.86448,44.88629 c -0.88545,0 -1.60157,-0.71612 -1.60157,-1.60157 0,-0.88545 0.71612,-1.60157 1.60157,-1.60157 0.88545,0 1.60157,0.71965 1.60157,1.60157 0,0.88192 -0.71612,1.60157 -1.60157,1.60157 z"
     id="path6"
     style="stroke-width:0.3;stroke-dasharray:none" /><path
     class="cls-1"
     d="M 180.00226,39.70869 V 5.2890502 H 175 V 44.71095 h 2.7516 c 0.65967,0 1.19941,0.53621 1.19941,1.19942 v 19.62452 c 0,0.65968 -0.53621,1.19942 -1.19941,1.19942 h -2.74807 v 43.83856 h 4.99873 v -38.8363 h 3.249 c 0.38452,0 0.69848,-0.31044 0.69848,-0.69849 V 40.41423 c 0,-0.38452 -0.31043,-0.69848 -0.69848,-0.69848 h -3.249 z m -2.05664,28.412 c 0.88545,0 1.60157,0.71612 1.60157,1.60157 0,0.88545 -0.71612,1.60157 -1.60157,1.60157 -0.88545,0 -1.60157,-0.71965 -1.60157,-1.60157 0,-0.88193 0.71612,-1.60157 1.60157,-1.60157 z m 0,-27.94634 c 0.88545,0 1.60157,0.71612 1.60157,1.60157 0,0.88545 -0.71612,1.60157 -1.60157,1.60157 -0.88545,0 -1.60157,-0.71965 -1.60157,-1.60157 0,-0.88192 0.71612,-1.60157 1.60157,-1.60157 z"
     id="path7"
     style="stroke-width:0.3;stroke-dasharray:none" /><path
     class="cls-1"
     d="m 12.028968,258.90091 v 0 l -4.9987319,4.99873 v 13.05597 c 0,0.38452 0.310436,0.69848 0.698482,0.69848 H 23.042408 C 28.478574,277.67529 34.348645,278.48663 40,280 c 5.235088,1.4005 10.699476,3.70055 15.811094,6.65322 l 0.179912,0.10583 c 0.08819,0.0494 0.155219,0.0882 0.218717,0.127 l 0.07761,0.0459 c 0.430378,0.25399 0.860756,0.51504 1.3123,0.80078 l 0.06703,0.0529 0.01411,0.007 0.119941,0.0882 0.201078,0.1023 11.038133,6.41333 c 0.335131,0.19756 0.765508,0.0811 0.959531,-0.25399 l 3.280749,-5.69369 h 16.897622 c 0.384518,0 0.698482,-0.31043 0.698482,-0.69848 v -16.3861 l -4.998733,-5.35856 v 16.24147 c 0,0.65968 -0.536208,1.19941 -1.199413,1.19941 H 70.391025 l -1.968449,3.41128 c -0.215189,0.3704 -0.613818,0.5997 -1.040668,0.5997 -0.211661,0 -0.419794,-0.0564 -0.603234,-0.16227 l -6.265173,-3.64057 -0.02822,-0.0212 -0.0388,-0.0176 -0.03528,-0.0247 c 0,0 -0.02117,-0.0141 -0.05644,-0.0353 -0.529153,-0.33866 -1.030084,-0.64204 -1.531016,-0.93836 -0.102303,-0.0635 -0.208133,-0.127 -0.313964,-0.18697 l -0.194023,-0.11289 c -5.485553,-3.16786 -11.369736,-5.64077 -17.017563,-7.15415 -6.060566,-1.62273 -12.371599,-2.49407 -18.252253,-2.51524 h -9.814026 c -0.659678,0 -1.199414,-0.53621 -1.199414,-1.19941 v -12.55857 0 0.0106 z m 74.095542,26.39062 c 0,-0.88545 0.716121,-1.60157 1.60157,-1.60157 0.88545,0 1.60157,0.71612 1.60157,1.60157 0,0.88545 -0.719648,1.60157 -1.60157,1.60157 -0.881921,0 -1.60157,-0.71612 -1.60157,-1.60157 z M 11.750281,274.52151 c 0,0.88544 -0.71612,1.60157 -1.60157,1.60157 -0.8854489,0 -1.6015699,-0.71613 -1.6015699,-1.60157 0,-0.88545 0.719648,-1.60157 1.6015699,-1.60157 0.881922,0 1.60157,0.71612 1.60157,1.60157 z"
     id="path8"
     style="stroke-width:0.3;stroke-dasharray:none" /><path
     class="cls-1"
     d="m 333.56723,250.34937 v 0 h -12.55857 c -0.6632,0 -1.19941,-0.53973 -1.19941,-1.19941 v -9.81403 c -0.0212,-5.88065 -0.89251,-12.19168 -2.51524,-18.25225 -1.51338,-5.64783 -3.98629,-11.53201 -7.15415,-17.01756 l -0.11289,-0.19402 c -0.06,-0.10584 -0.12347,-0.21167 -0.18697,-0.31397 -0.29632,-0.50093 -0.5997,-1.00186 -0.93836,-1.53102 -0.0212,-0.0353 -0.0282,-0.0459 -0.0353,-0.0564 l -0.0247,-0.0353 -0.0176,-0.0388 -0.0212,-0.0282 -3.64057,-6.26517 C 305.05644,195.4198 305,195.21166 305,195 c 0,-0.42685 0.2293,-0.82548 0.5997,-1.04067 l 3.41128,-1.96845 v -14.28713 c 0,-0.6632 0.53973,-1.19941 1.19941,-1.19941 h 16.24147 l -5.35856,-4.99873 h -16.3861 c -0.38805,0 -0.69848,0.31396 -0.69848,0.69848 v 16.89762 l -5.69369,3.28075 c -0.33513,0.19402 -0.45155,0.6244 -0.25399,0.95953 l 6.41333,11.03813 0.1023,0.20108 0.0882,0.11994 0.007,0.0141 0.0529,0.067 c 0.28574,0.45154 0.54679,0.88192 0.80078,1.3123 l 0.0459,0.0776 c 0.0388,0.0635 0.0776,0.13052 0.127,0.21871 l 0.10583,0.17992 c 2.95267,5.11161 5.25272,10.576 6.65322,15.81109 1.51337,5.65135 2.32474,11.52143 2.34591,16.95759 v 15.31369 c 0,0.38805 0.31396,0.69848 0.69848,0.69848 h 13.05597 l 4.99873,-4.99873 v 0 h 0.0106 z m -28.00278,-75.70064 c 0,-0.88192 0.71612,-1.60157 1.60157,-1.60157 0.88545,0 1.60157,0.71612 1.60157,1.60157 0,0.88545 -0.71612,1.60157 -1.60157,1.60157 -0.88545,0 -1.60157,-0.71612 -1.60157,-1.60157 z m 13.97316,77.57737 c 0,0.88193 -0.71612,1.60157 -1.60157,1.60157 -0.88544,0 -1.60157,-0.71612 -1.60157,-1.60157 0,-0.88545 0.71613,-1.60157 1.60157,-1.60157 0.88545,0 1.60157,0.71612 1.60157,1.60157 z"
     id="path1-12"
     style="stroke-width:0.3;stroke-dasharray:none" /><path
     class="cls-1"
     d="m 218.66397,220.61839 -18.00531,-3.17845 2.32474,-13.18649 c 0.067,-0.38099 -0.18696,-0.74434 -0.56796,-0.81137 l -4.67771,-0.82548 v -22.30204 c 0,-0.38804 -0.31396,-0.69848 -0.69848,-0.69848 h -5.58433 v 4.99873 h 0.0847 c 0.6632,0 1.19941,0.53974 1.19941,1.19942 v 20.99679 l 3.39363,0.59971 c 0.65263,0.11641 1.08653,0.73729 0.97365,1.38991 l -2.23656,12.69614 17.51144,3.09026 c 0.31397,0.0564 0.58912,0.2293 0.77609,0.49387 0.18344,0.26105 0.254,0.58207 0.19755,0.89604 l -6.70966,38.0461 c -0.1023,0.57502 -0.59971,0.99128 -1.18177,0.99128 -0.0706,0 -0.13758,-0.007 -0.20814,-0.0176 l -17.54319,-3.09379 -0.65615,3.7076 c -0.1023,0.57502 -0.5997,0.99128 -1.18177,0.99128 -0.067,0 -0.13758,-0.007 -0.20813,-0.0176 l -19.26823,-3.39716 c -0.31397,-0.0564 -0.58913,-0.2293 -0.77609,-0.49387 -0.18344,-0.26105 -0.254,-0.58207 -0.19755,-0.89604 l 0.50798,-2.88565 -14.5376,-1.0195 h -15.44421 l 4.99873,5.00226 h 10.2691 l 8.82627,0.61735 -0.50093,2.83273 c -0.067,0.38099 0.18697,0.74434 0.56796,0.81137 l 30.09823,5.30564 c 0.38099,0.067 0.74434,-0.18697 0.81137,-0.56796 l 0.74081,-4.20147 18.03706,3.18197 c 0.38099,0.067 0.74435,-0.18697 0.81137,-0.56796 l 8.62167,-48.87963 c 0.067,-0.38099 -0.18697,-0.74434 -0.56796,-0.81137 v 0 z m -24.05882,-36.2611 c -0.88193,0 -1.60157,-0.71612 -1.60157,-1.60157 0,-0.88545 0.71612,-1.60157 1.60157,-1.60157 0.88544,0 1.60157,0.71612 1.60157,1.60157 0,0.88545 -0.71613,1.60157 -1.60157,1.60157 z m -31.53047,81.75063 c -0.88192,0 -1.60157,-0.71612 -1.60157,-1.60157 0,-0.88545 0.71612,-1.60157 1.60157,-1.60157 0.88545,0 1.60157,0.71612 1.60157,1.60157 0,0.88545 -0.71612,1.60157 -1.60157,1.60157 z m 44.88629,2.86448 c -0.88192,0 -1.60157,-0.71612 -1.60157,-1.60157 0,-0.88545 0.71612,-1.60157 1.60157,-1.60157 0.88545,0 1.60157,0.71612 1.60157,1.60157 0,0.88545 -0.71612,1.60157 -1.60157,1.60157 z"
     id="path2-7"
     style="stroke-width:0.3;stroke-dasharray:none" /><path
     class="cls-1"
     d="m 154.37444,390 v 3.249 c 0,0.38805 0.31396,0.69848 0.69848,0.69848 h 30.62385 c 0.38805,0 0.69848,-0.31396 0.69848,-0.69848 V 390 h 67.2095 c 0.38805,0 0.69848,-0.31396 0.69848,-0.69848 v -7.72564 l -4.89643,-4.89643 v 0.99128 h -0.10583 v 6.13112 c 0,0.66321 -0.53973,1.19942 -1.19941,1.19942 h -66.70504 v 2.74807 c 0,0.6632 -0.53973,1.19941 -1.19941,1.19941 h -19.62453 c -0.6632,0 -1.19941,-0.53974 -1.19941,-1.19941 v -2.7516 h -39.4219 V 390 Z m 96.78562,-4.74827 c 0.88193,0 1.60157,0.71612 1.60157,1.60157 0,0.88545 -0.71612,1.60157 -1.60157,1.60157 -0.88545,0 -1.60157,-0.71612 -1.60157,-1.60157 0,-0.88545 0.71612,-1.60157 1.60157,-1.60157 z m -66.77559,1.09359 c 0.88192,0 1.60157,0.71612 1.60157,1.60157 0,0.88545 -0.71612,1.60157 -1.60157,1.60157 -0.88545,0 -1.60157,-0.71612 -1.60157,-1.60157 0,-0.88545 0.71612,-1.60157 1.60157,-1.60157 z m -27.94634,0 c 0.88193,0 1.60157,0.71612 1.60157,1.60157 0,0.88545 -0.71612,1.60157 -1.60157,1.60157 -0.88545,0 -1.60157,-0.71612 -1.60157,-1.60157 0,-0.88545 0.71612,-1.60157 1.60157,-1.60157 z"
     id="path3-3"
     style="stroke-width:0.3;stroke-dasharray:none" /><path
     class="cls-1"
     d="m 39.906037,300.85891 h -0.10583 v -1.01598 l -4.89643,4.89643 v 40.35322 l 4.99873,4.99873 v -49.2324 z m -2.50113,43.83504 c -0.88192,0 -1.60157,-0.71612 -1.60157,-1.60157 0,-0.88545 0.71612,-1.60157 1.60157,-1.60157 0.88545,0 1.60157,0.71612 1.60157,1.60157 0,0.88545 -0.71612,1.60157 -1.60157,1.60157 z m 0,-36.43748 c -0.88192,0 -1.60157,-0.71612 -1.60157,-1.60157 0,-0.88545 0.71612,-1.60157 1.60157,-1.60157 0.88545,0 1.60157,0.71612 1.60157,1.60157 0,0.88545 -0.71612,1.60157 -1.60157,1.60157 z"
     id="path4-7"
     style="stroke-width:0.3;stroke-dasharray:none" /><path
     class="cls-1"
     d="m 355.97278,79.08222 v 0 l 4.99873,-4.99873 V 61.02752 c 0,-0.38452 -0.31044,-0.69848 -0.69848,-0.69848 h -15.31369 c -5.43617,-0.0212 -11.30624,-0.83254 -16.95759,-2.34591 -5.23509,-1.4005 -10.69948,-3.70055 -15.8111,-6.65322 l -0.17991,-0.10583 c -0.0882,-0.0494 -0.15522,-0.0882 -0.21872,-0.127 l -0.0776,-0.0459 c -0.43037,-0.25399 -0.86075,-0.51504 -1.3123,-0.80078 l -0.067,-0.0529 -0.0141,-0.007 -0.11994,-0.0882 L 310,50 298.96187,43.58667 c -0.33513,-0.19756 -0.76551,-0.0811 -0.95953,0.25399 l -3.28075,5.69369 h -16.89762 c -0.38452,0 -0.69848,0.31043 -0.69848,0.69848 v 16.3861 l 4.99873,5.35856 V 55.73602 c 0,-0.65968 0.53621,-1.19941 1.19941,-1.19941 h 14.28714 l 1.96845,-3.41128 c 0.21519,-0.3704 0.61382,-0.5997 1.04067,-0.5997 0.21166,0 0.41979,0.0564 0.60323,0.16227 l 6.26518,3.64057 0.0282,0.0212 0.0388,0.0176 0.0353,0.0247 c 0,0 0.0212,0.0141 0.0564,0.0353 0.52915,0.33866 1.03008,0.64204 1.53101,0.93836 0.1023,0.0635 0.20813,0.127 0.31397,0.18697 l 0.19402,0.11289 c 5.48555,3.16786 11.36973,5.64077 17.01756,7.15415 6.06057,1.62273 12.3716,2.49407 18.25225,2.51524 h 9.81403 c 0.65967,0 1.19941,0.53621 1.19941,1.19941 v 12.55857 0 -0.0106 z M 281.87724,52.6916 c 0,0.88545 -0.71612,1.60157 -1.60157,1.60157 -0.88545,0 -1.60157,-0.71612 -1.60157,-1.60157 0,-0.88545 0.71964,-1.60157 1.60157,-1.60157 0.88192,0 1.60157,0.71612 1.60157,1.60157 z m 74.37423,10.77002 c 0,-0.88544 0.71612,-1.60157 1.60157,-1.60157 0.88544,0 1.60157,0.71613 1.60157,1.60157 0,0.88545 -0.71965,1.60157 -1.60157,1.60157 -0.88193,0 -1.60157,-0.71612 -1.60157,-1.60157 z"
     id="path5-6"
     style="stroke-width:0.3;stroke-dasharray:none" /><path
     class="cls-1"
     d="m 131.85819,376.28001 c 0.067,0.38099 0.43038,0.63498 0.81137,0.56796 l 48.87963,-8.62167 c 0.38099,-0.067 0.63499,-0.43038 0.56796,-0.81137 l -3.18197,-18.03706 4.20147,-0.74082 c 0.38099,-0.067 0.63499,-0.43038 0.56796,-0.81137 l -5.30564,-30.09822 c -0.067,-0.38099 -0.43038,-0.63499 -0.81137,-0.56796 l -2.83273,0.50093 -0.61735,-8.82627 v -10.2691 l -5.00226,-4.99873 v 15.44421 l 1.0195,14.5376 2.88565,-0.50799 c 0.31397,-0.0564 0.63499,0.0141 0.89604,0.19755 0.26457,0.18697 0.43743,0.46213 0.49387,0.7761 l 3.39716,19.26822 c 0.0106,0.0705 0.0176,0.14111 0.0176,0.20814 0,0.58207 -0.41626,1.07947 -0.99128,1.18177 l -3.7076,0.65615 3.09379,17.54319 c 0.0106,0.0705 0.0176,0.13758 0.0176,0.20813 0,0.58207 -0.41626,1.07948 -0.99128,1.18178 l -38.0461,6.70966 c -0.31397,0.0564 -0.63499,-0.0141 -0.89604,-0.19755 -0.26457,-0.18697 -0.43743,-0.46213 -0.49387,-0.77609 l -3.09026,-17.51144 -12.69614,2.23655 c -0.65262,0.11289 -1.2735,-0.32102 -1.38991,-0.97364 l -0.59971,-3.39363 H 97.057491 c -0.65968,0 -1.19942,-0.53621 -1.19942,-1.19942 v -0.0847 h -4.99873 v 5.58433 c 0,0.38452 0.31044,0.69848 0.69848,0.69848 h 22.302039 l 0.82548,4.67772 c 0.067,0.38099 0.43038,0.63498 0.81137,0.56795 l 13.18649,-2.32474 3.17845,18.00531 v 0 z M 93.995531,353.82275 c -0.88545,0 -1.60157,-0.71612 -1.60157,-1.60157 0,-0.88545 0.71612,-1.60157 1.60157,-1.60157 0.88545,0 1.60157,0.71965 1.60157,1.60157 0,0.88192 -0.71612,1.60157 -1.60157,1.60157 z m 81.750619,-31.53047 c -0.88545,0 -1.60157,-0.71612 -1.60157,-1.60157 0,-0.88545 0.71612,-1.60157 1.60157,-1.60157 0.88545,0 1.60157,0.71965 1.60157,1.60157 0,0.88193 -0.71612,1.60157 -1.60157,1.60157 z m 2.86448,44.8863 c -0.88545,0 -1.60157,-0.71612 -1.60157,-1.60157 0,-0.88545 0.71612,-1.60157 1.60157,-1.60157 0.88545,0 1.60157,0.71964 1.60157,1.60157 0,0.88192 -0.71612,1.60157 -1.60157,1.60157 z"
     id="path6-8"
     style="stroke-width:0.3;stroke-dasharray:none" /><path
     class="cls-1"
     d="M 158.65468,154.98644 V 120.5668 h -5.00226 v 39.4219 h 2.7516 c 0.65967,0 1.19941,0.53621 1.19941,1.19941 v 19.62453 c 0,0.65968 -0.53621,1.19941 -1.19941,1.19941 h -2.74807 v 66.70504 c 0,0.65968 -0.53621,1.19941 -1.19942,1.19941 h -6.13112 v 0.10583 h -0.99128 l 4.89643,4.89643 h 7.72564 c 0.38452,0 0.69848,-0.31043 0.69848,-0.69848 v -67.2095 h 3.249 c 0.38452,0 0.69848,-0.31043 0.69848,-0.69848 v -30.62385 c 0,-0.38452 -0.31043,-0.69848 -0.69848,-0.69848 h -3.249 z m -3.1467,95.18758 c 0.88545,0 1.60157,0.71612 1.60157,1.60157 0,0.88545 -0.71612,1.60157 -1.60157,1.60157 -0.88545,0 -1.60157,-0.71964 -1.60157,-1.60157 0,-0.88192 0.71612,-1.60157 1.60157,-1.60157 z m 1.09359,-66.77559 c 0.88545,0 1.60157,0.71612 1.60157,1.60157 0,0.88545 -0.71612,1.60157 -1.60157,1.60157 C 155.71612,186.60157 155,185.88193 155,185 c 0,-0.88192 0.71612,-1.60157 1.60157,-1.60157 z m 0,-27.94633 c 0.88545,0 1.60157,0.71612 1.60157,1.60157 0,0.88544 -0.71612,1.60157 -1.60157,1.60157 -0.88545,0 -1.60157,-0.71965 -1.60157,-1.60157 0,-0.88193 0.71612,-1.60157 1.60157,-1.60157 z"
     id="path7-9"
     style="stroke-width:0.3;stroke-dasharray:none" /><path
     class="cls-1"
     d="m 25,285.3838 v 49.2324 l 4.998733,-4.99873 v -40.35322 l -4.89643,-4.89643 v 1.01598 z m 0.896033,42.23347 c 0,-0.88545 0.71612,-1.60157 1.601569,-1.60157 0.88545,0 1.60157,0.71612 1.60157,1.60157 0,0.88545 -0.719648,1.60157 -1.60157,1.60157 -0.881921,0 -1.601569,-0.71612 -1.601569,-1.60157 z m 0,-36.43748 c 0,-0.88545 0.71612,-1.60157 1.601569,-1.60157 0.88545,0 1.60157,0.71612 1.60157,1.60157 0,0.88545 -0.719648,1.60157 -1.60157,1.60157 -0.881921,0 -1.601569,-0.71612 -1.601569,-1.60157 z"
     id="path8-4"
     style="stroke-width:0.3;stroke-dasharray:none" /><path
     class="cls-1"
     d="m 385.30929,299.64129 -18.00585,-3.17855 2.32481,-13.18688 c 0.067,-0.38101 -0.18697,-0.74437 -0.56797,-0.8114 l -4.67786,-0.8255 v -22.30271 c 0,-0.38805 -0.31397,-0.6985 -0.6985,-0.6985 h -5.58449 v 4.99888 h 0.0847 c 0.66323,0 1.19945,0.53976 1.19945,1.19945 v 20.99743 l 3.39374,0.59972 c 0.65264,0.11642 1.08656,0.73731 0.97367,1.38995 l -2.23662,12.69653 17.51196,3.09034 c 0.31397,0.0565 0.58914,0.22931 0.77612,0.49389 0.18344,0.26106 0.254,0.58209 0.19755,0.89606 l -6.70986,38.04725 c -0.10231,0.57503 -0.59972,0.99131 -1.18181,0.99131 -0.0706,0 -0.13758,-0.007 -0.20814,-0.0176 l -17.54371,-3.09388 -0.65617,3.70771 c -0.10231,0.57503 -0.59973,0.99131 -1.18181,0.99131 -0.067,0 -0.13759,-0.007 -0.20814,-0.0176 l -19.26881,-3.39726 c -0.31397,-0.0564 -0.58914,-0.22931 -0.77611,-0.49389 -0.18345,-0.26106 -0.254,-0.58209 -0.19756,-0.89606 l 0.508,-2.88573 -14.53803,-1.01954 h -15.44468 l 4.99889,5.00241 h 10.2694 l 8.82654,0.61737 -0.50095,2.83281 c -0.067,0.38101 0.18698,0.74437 0.56798,0.8114 l 30.09912,5.3058 c 0.38101,0.067 0.74437,-0.18698 0.8114,-0.56798 l 0.74083,-4.2016 18.03761,3.18207 c 0.381,0.067 0.74436,-0.18697 0.81139,-0.56797 l 8.62192,-48.8811 c 0.067,-0.381 -0.18697,-0.74436 -0.56797,-0.81139 v 0 z M 361.24974,263.3791 c -0.88194,0 -1.60161,-0.71614 -1.60161,-1.60161 0,-0.88548 0.71614,-1.60162 1.60161,-1.60162 0.88548,0 1.60162,0.71614 1.60162,1.60162 0,0.88547 -0.71614,1.60161 -1.60162,1.60161 z m -31.53141,81.75307 c -0.88195,0 -1.60162,-0.71614 -1.60162,-1.60162 0,-0.88547 0.71615,-1.60161 1.60162,-1.60161 0.88548,0 1.60162,0.71614 1.60162,1.60161 0,0.88548 -0.71614,1.60162 -1.60162,1.60162 z m 44.88764,2.86457 c -0.88195,0 -1.60162,-0.71614 -1.60162,-1.60162 0,-0.88547 0.71614,-1.60162 1.60162,-1.60162 0.88547,0 1.60161,0.71615 1.60161,1.60162 0,0.88548 -0.71614,1.60162 -1.60161,1.60162 z"
     id="path1-0"
     style="stroke-width:0.3;stroke-dasharray:none" /><path
     class="cls-1"
     d="m 213.65479,105.01093 h 3.2491 c 0.38806,0 0.6985,-0.31398 0.6985,-0.69851 V 73.687661 c 0,-0.38806 -0.31397,-0.69851 -0.6985,-0.69851 h -3.2491 V 5.7776506 c 0,-0.38806 -0.31397,-0.69851 -0.6985,-0.69851 h -7.72587 l -4.89657,4.89658 h 0.99131 v 0.1058304 h 6.1313 c 0.66322,0 1.19945,0.53976 1.19945,1.19945 V 77.98804 h 2.74815 c 0.66322,0 1.19945,0.53975 1.19945,1.19945 V 98.8126 c 0,0.66322 -0.53975,1.19945 -1.19945,1.19945 h -2.75168 v 39.42308 h 5.00241 z M 208.90638,8.2224106 c 0,-0.88195 0.71614,-1.60162 1.60162,-1.60162 0.88548,0 1.60162,0.71614 1.60162,1.60162 0,0.88547 -0.71614,1.60162 -1.60162,1.60162 -0.88548,0 -1.60162,-0.71615 -1.60162,-1.60162 z M 210,75.000001 c 0,-0.88195 0.71614,-1.60162 1.60162,-1.60162 0.88547,0 1.60161,0.71614 1.60161,1.60162 0,0.88547 -0.71614,1.60161 -1.60161,1.60161 -0.88548,0 -1.60162,-0.71614 -1.60162,-1.60161 z m 0,27.947169 c 0,-0.88195 0.71614,-1.60162 1.60162,-1.60162 0.88547,0 1.60161,0.71614 1.60161,1.60162 0,0.88547 -0.71614,1.60162 -1.60161,1.60162 -0.88548,0 -1.60162,-0.71615 -1.60162,-1.60162 z"
     id="path2-6"
     style="stroke-width:0.3;stroke-dasharray:none" /><path
     class="cls-1"
     d="m 268.84724,337.22444 v 0 12.55542 c 0,0.66322 -0.53975,1.19945 -1.19945,1.19945 h -9.81432 c -5.88083,0.0212 -12.19205,0.89253 -18.2528,2.51531 -5.648,1.51342 -11.53235,3.98641 -17.01807,7.15436 l -0.19403,0.11289 c -0.10583,0.06 -0.21167,0.12348 -0.31397,0.18698 -0.50095,0.29633 -1.0019,0.59972 -1.53107,0.93839 -0.0353,0.0212 -0.0459,0.0282 -0.0564,0.0353 l -0.0353,0.0247 -0.0388,0.0176 -0.0282,0.0212 -6.26536,3.64068 c -0.18344,0.10583 -0.39158,0.16228 -0.60325,0.16228 -0.42686,0 -0.8255,-0.22931 -1.0407,-0.59973 l -1.96851,-3.41137 h -14.28756 c -0.66322,0 -1.19945,-0.53975 -1.19945,-1.19945 v -81.15689 h -0.10583 v -1.01601 l -4.89658,4.89658 v 82.77613 c 0,0.38806 0.31398,0.6985 0.69851,0.6985 h 16.89812 l 3.28085,5.69386 c 0.19403,0.33514 0.62442,0.45156 0.95956,0.254 l 11.03846,-6.41353 0.20109,-0.1023 0.11994,-0.0882 0.0141,-0.007 0.067,-0.0529 c 0.45156,-0.28575 0.88195,-0.54681 1.31234,-0.80081 l 0.0776,-0.0459 c 0.0635,-0.0388 0.13053,-0.0776 0.21873,-0.127 l 0.17991,-0.10584 c 5.11177,-2.95276 10.57633,-5.25288 15.81157,-6.65341 5.65152,-1.51343 11.52177,-2.32482 16.9581,-2.34598 h 15.31415 c 0.38805,0 0.6985,-0.31398 0.6985,-0.69851 v -13.05636 l -4.99888,-4.99888 v 0 z M 192.50228,283.6161 c 0.88194,0 1.60161,0.71615 1.60161,1.60162 0,0.88548 -0.71614,1.60162 -1.60161,1.60162 -0.88548,0 -1.60162,-0.71614 -1.60162,-1.60162 0,-0.88547 0.71614,-1.60162 1.60162,-1.60162 z m 0,36.43857 c 0.88194,0 1.60161,0.71615 1.60161,1.60162 0,0.88548 -0.71614,1.60162 -1.60161,1.60162 -0.88548,0 -1.60162,-0.71614 -1.60162,-1.60162 0,-0.88547 0.71614,-1.60162 1.60162,-1.60162 z m 0.64911,45.16986 c -0.88195,0 -1.60162,-0.71614 -1.60162,-1.60162 0,-0.88547 0.71614,-1.60161 1.60162,-1.60161 0.88548,0 1.60162,0.71614 1.60162,1.60161 0,0.88548 -0.71614,1.60162 -1.60162,1.60162 z m 77.57969,-10.77388 c -0.88195,0 -1.60162,-0.71614 -1.60162,-1.60161 0,-0.88548 0.71614,-1.60162 1.60162,-1.60162 0.88548,0 1.60162,0.71614 1.60162,1.60162 0,0.88547 -0.71614,1.60161 -1.60162,1.60161 z"
     id="path3-0"
     style="stroke-width:0.3;stroke-dasharray:none" /><path
     class="cls-1"
     d="m 252.30494,196.75383 c 0.381,-0.067 0.63501,-0.43039 0.56798,-0.81139 l -8.62193,-48.8811 c -0.067,-0.381 -0.43039,-0.635 -0.81139,-0.56797 l -18.0376,3.18207 -0.74084,-4.2016 c -0.067,-0.381 -0.43039,-0.63501 -0.81139,-0.56798 l -30.09913,5.3058 c -0.381,0.067 -0.635,0.43039 -0.56797,0.8114 l 0.50094,2.83281 -8.82654,0.61737 h -10.2694 l -4.99888,5.00241 h 15.44467 l 14.53804,-1.01954 -0.508,-2.88573 c -0.0564,-0.31397 0.0141,-0.635 0.19755,-0.89606 0.18697,-0.26458 0.46214,-0.43745 0.77612,-0.49389 l 19.2688,-3.39726 c 0.0706,-0.0106 0.14111,-0.0176 0.20814,-0.0176 0.58209,0 1.0795,0.41628 1.18181,0.99131 l 0.65617,3.70771 17.54371,-3.09388 c 0.0706,-0.0106 0.13759,-0.0176 0.20814,-0.0176 0.58209,0 1.07951,0.41628 1.18181,0.99131 l 6.70986,38.04725 c 0.0565,0.31397 -0.0141,0.635 -0.19755,0.89606 -0.18697,0.26458 -0.46214,0.43744 -0.77612,0.49389 l -17.51196,3.09034 2.23662,12.69653 c 0.11289,0.65264 -0.32103,1.27353 -0.97367,1.38995 l -3.39374,0.59972 v 20.99743 c 0,0.65969 -0.53622,1.19945 -1.19945,1.19945 h -0.0847 v 4.99888 h 5.58449 c 0.38453,0 0.69851,-0.31045 0.69851,-0.6985 v -22.30271 l 4.67785,-0.8255 c 0.381,-0.067 0.635,-0.43039 0.56797,-0.8114 l -2.32481,-13.18688 18.00585,-3.17855 v 0 z m -22.45793,37.8638 c 0,0.88548 -0.71614,1.60162 -1.60161,1.60162 -0.88548,0 -1.60162,-0.71614 -1.60162,-1.60162 0,-0.88548 0.71967,-1.60162 1.60162,-1.60162 0.88194,0 1.60161,0.71614 1.60161,1.60162 z M 198.3156,152.86456 c 0,0.88548 -0.71614,1.60162 -1.60161,1.60162 -0.88548,0 -1.60162,-0.71614 -1.60162,-1.60162 0,-0.88547 0.71967,-1.60161 1.60162,-1.60161 0.88194,0 1.60161,0.71614 1.60161,1.60161 z M 243.20324,150 c 0,0.88547 -0.71614,1.60161 -1.60162,1.60161 C 240.71614,151.60161 240,150.88547 240,150 c 0,-0.88548 0.71967,-1.60162 1.60162,-1.60162 0.88195,0 1.60162,0.71614 1.60162,1.60162 z"
     id="path4-1"
     style="stroke-width:0.3;stroke-dasharray:none" /><path
     class="cls-1"
     d="M 196.05128,38.985585 V 4.5649154 h -5.00241 V 43.987995 h 2.75168 c 0.6597,0 1.19945,0.53623 1.19945,1.19945 v 19.62511 c 0,0.6597 -0.53623,1.19945 -1.19945,1.19945 h -2.74815 v 66.707035 c 0,0.6597 -0.53623,1.19945 -1.19945,1.19945 h -6.1313 v 0.10584 h -0.99131 l 4.89657,4.89657 h 7.72587 c 0.38453,0 0.6985,-0.31044 0.6985,-0.6985 V 71.010885 h 3.2491 c 0.38453,0 0.6985,-0.31044 0.6985,-0.6985 v -30.62477 c 0,-0.38453 -0.31044,-0.6985 -0.6985,-0.6985 h -3.2491 z m -3.14679,95.190435 c 0.88548,0 1.60162,0.71614 1.60162,1.60162 0,0.88548 -0.71614,1.60162 -1.60162,1.60162 -0.88548,0 -1.60162,-0.71967 -1.60162,-1.60162 0,-0.88195 0.71614,-1.60162 1.60162,-1.60162 z m 1.09362,-66.777595 c 0.88547,0 1.60161,0.71615 1.60161,1.60162 0,0.88548 -0.71614,1.60162 -1.60161,1.60162 -0.88548,0 -1.60162,-0.71967 -1.60162,-1.60162 0,-0.88195 0.71614,-1.60162 1.60162,-1.60162 z m 0,-27.94717 c 0.88547,0 1.60161,0.71614 1.60161,1.60162 0,0.88547 -0.71614,1.60162 -1.60161,1.60162 -0.88548,0 -1.60162,-0.71967 -1.60162,-1.60162 0,-0.88195 0.71614,-1.60162 1.60162,-1.60162 z"
     id="path5-8"
     style="stroke-width:0.3;stroke-dasharray:none" /><path
     class="cls-1"
     d="m 238.35043,256.15277 -4.99888,-4.99889 h -13.05636 c -0.38453,0 -0.69851,0.31045 -0.69851,0.69851 v 15.31415 c -0.0212,5.43632 -0.83255,11.30657 -2.34598,16.95809 -1.40053,5.23525 -3.70065,10.6998 -6.65341,15.81157 l -0.10584,0.17992 c -0.0494,0.0882 -0.0882,0.15522 -0.127,0.21872 l -0.0459,0.0776 c -0.254,0.43039 -0.51506,0.86079 -0.80081,1.31234 l -0.0529,0.067 -0.007,0.0141 -0.0882,0.11995 -0.1023,0.20108 -6.41353,11.03846 c -0.19756,0.33514 -0.0811,0.76554 0.254,0.95956 l 5.69386,3.28085 v 16.89813 c 0,0.38453 0.31044,0.6985 0.6985,0.6985 h 82.77613 l 4.89658,-4.89658 h -1.01601 V 330 H 215 c -0.6597,0 -1.19945,-0.53622 -1.19945,-1.19945 v -14.28756 l -3.41137,-1.96851 c -0.37042,-0.21519 -0.59973,-0.61383 -0.59973,-1.0407 0,-0.21166 0.0564,-0.4198 0.16228,-0.60325 l 3.64068,-6.26536 0.0212,-0.0282 0.0176,-0.0388 0.0247,-0.0353 c 0,0 0.0141,-0.0212 0.0353,-0.0564 0.33867,-0.52917 0.64206,-1.03011 0.93839,-1.53106 0.0635,-0.10231 0.127,-0.20814 0.18698,-0.31397 l 0.11289,-0.19403 c 3.16795,-5.48572 5.64094,-11.37008 7.15436,-17.01808 1.62278,-6.06074 2.49415,-12.37196 2.51531,-18.25279 v -9.81432 c 0,-0.6597 0.53623,-1.19945 1.19945,-1.19945 h 12.55542 v 0 z m 52.00672,77.94658 c -0.88548,0 -1.60162,-0.71615 -1.60162,-1.60162 0,-0.88548 0.71614,-1.60162 1.60162,-1.60162 0.88548,0 1.60162,0.71967 1.60162,1.60162 0,0.88195 -0.71614,1.60162 -1.60162,1.60162 z m -36.43857,0 c -0.88548,0 -1.60162,-0.71615 -1.60162,-1.60162 0,-0.88548 0.71614,-1.60162 1.60162,-1.60162 0.88548,0 1.60162,0.71967 1.60162,1.60162 0,0.88195 -0.71614,1.60162 -1.60162,1.60162 z M 211.95196,330.247 c 0.88547,0 1.60162,0.71614 1.60162,1.60161 0,0.88548 -0.71615,1.60162 -1.60162,1.60162 -0.88548,0 -1.60162,-0.71967 -1.60162,-1.60162 0,-0.88194 0.71614,-1.60161 1.60162,-1.60161 z m 10.77388,-77.57969 c 0.88547,0 1.60161,0.71614 1.60161,1.60162 0,0.88547 -0.71614,1.60161 -1.60161,1.60161 -0.88548,0 -1.60162,-0.71967 -1.60162,-1.60161 0,-0.88195 0.71614,-1.60162 1.60162,-1.60162 z"
     id="path6-7"
     style="stroke-width:0.3;stroke-dasharray:none" /><g
     id="CaHole_Mid"
     data-name="CaHole Mid"
     style="stroke-width:0.850394;stroke-dasharray:none"
     transform="matrix(0.35277746,0,0,0.35277746,44.952969,5.3045321)"><path
       class="cls-1"
       d="m 968.35,127.55 -51.04,-9.01 6.59,-37.38 c 0.19,-1.08 -0.53,-2.11 -1.61,-2.3 L 909.03,76.52 V 13.3 c 0,-1.1 -0.89,-1.98 -1.98,-1.98 H 793.64 v -9.2 c 0,-1.1 -0.89,-1.98 -1.98,-1.98 h -86.81 c -1.1,0 -1.98,0.89 -1.98,1.98 v 9.21 H 512.35 c -1.1,0 -1.98,0.89 -1.98,1.98 v 301.7 c 0,1.1 0.89,1.98 1.98,1.98 h 47.9 l 9.3,16.14 c 0.55,0.95 1.77,1.28 2.72,0.72 l 31.29,-18.18 0.57,-0.29 0.34,-0.25 0.04,-0.02 0.19,-0.15 c 1.28,-0.81 2.5,-1.55 3.72,-2.27 l 0.22,-0.13 c 0.18,-0.11 0.37,-0.22 0.62,-0.36 l 0.51,-0.3 c 14.49,-8.37 29.98,-14.89 44.82,-18.86 16.02,-4.29 32.66,-6.59 48.07,-6.65 h 43.41 c 1.1,0 1.98,-0.89 1.98,-1.98 v -37.02 h 29.11 l 25.02,1.75 -1.42,8.03 c -0.19,1.08 0.53,2.11 1.61,2.3 l 85.32,15.04 c 1.08,0.19 2.11,-0.53 2.3,-1.61 l 2.1,-11.91 51.13,9.02 c 1.08,0.19 2.11,-0.53 2.3,-1.61 l 24.44,-138.56 c 0.19,-1.08 -0.53,-2.11 -1.61,-2.3 v 0 z M 900.15,17.11 c 1.72,0 3.12,1.4 3.12,3.12 0,1.72 -1.4,3.12 -3.12,3.12 -1.72,0 -3.12,-1.4 -3.12,-3.12 0,-1.72 1.4,-3.12 3.12,-3.12 z M 787.81,14.04 c 1.72,0 3.12,1.4 3.12,3.12 0,1.72 -1.4,3.12 -3.12,3.12 -1.72,0 -3.12,-1.4 -3.12,-3.12 0,-1.72 1.4,-3.12 3.12,-3.12 z m -79.22,0 c 1.72,0 3.12,1.4 3.12,3.12 0,1.72 -1.4,3.12 -3.12,3.12 -1.72,0 -3.12,-1.4 -3.12,-3.12 0,-1.72 1.4,-3.12 3.12,-3.12 z m -189.29,3.1 c 1.72,0 3.12,1.4 3.12,3.12 0,1.72 -1.4,3.12 -3.12,3.12 -1.72,0 -3.12,-1.4 -3.12,-3.12 0,-1.72 1.4,-3.12 3.12,-3.12 z m -1.83,65.56 c 1.72,0 3.12,1.4 3.12,3.12 0,1.72 -1.4,3.12 -3.12,3.12 -1.72,0 -3.12,-1.4 -3.12,-3.12 0,-1.72 1.4,-3.12 3.12,-3.12 z m -3.12,106.41 c 0,-1.72 1.4,-3.12 3.12,-3.12 1.72,0 3.12,1.4 3.12,3.12 0,1.72 -1.4,3.12 -3.12,3.12 -1.72,0 -3.12,-1.4 -3.12,-3.12 z m 4.96,122.08 c -1.72,0 -3.12,-1.4 -3.12,-3.12 0,-1.72 1.4,-3.12 3.12,-3.12 1.72,0 3.12,1.4 3.12,3.12 0,1.72 -1.4,3.12 -3.12,3.12 z m 219.91,-30.54 c -1.72,0 -3.12,-1.4 -3.12,-3.12 0,-1.72 1.4,-3.12 3.12,-3.12 1.72,0 3.12,1.4 3.12,3.12 0,1.72 -1.4,3.12 -3.12,3.12 z m 71.55,-25.57 c -1.72,0 -3.12,-1.4 -3.12,-3.12 0,-1.72 1.4,-3.12 3.12,-3.12 1.72,0 3.12,1.4 3.12,3.12 0,1.72 -1.4,3.12 -3.12,3.12 z m 127.24,8.12 c -1.72,0 -3.12,-1.4 -3.12,-3.12 0,-1.72 1.4,-3.12 3.12,-3.12 1.72,0 3.12,1.4 3.12,3.12 0,1.72 -1.4,3.12 -3.12,3.12 z m 14.27,-120.75 -19.1,107.95 c -0.19,1.08 -1.22,1.8 -2.3,1.61 l -51.22,-9.03 -2.11,11.98 c -0.19,1.08 -1.22,1.8 -2.3,1.61 l -54.71,-9.65 c -1.08,-0.19 -1.8,-1.22 -1.61,-2.3 l 5.39,-30.54 -51.58,-3.61 c -1.09,-0.08 -1.92,-1.02 -1.84,-2.12 l 1.76,-25.16 h -48.63 v 28.2 h 6.38 c 1.1,0 1.98,0.89 1.98,1.98 v 55.56 c 0,1.1 -0.89,1.98 -1.98,1.98 h -27.78 c -16.67,0 -34.71,2.47 -52.18,7.15 -16.02,4.29 -32.79,11.35 -48.49,20.42 l -24.06,13.89 c -0.95,0.55 -2.16,0.22 -2.71,-0.73 l -27.78,-48.12 c -0.55,-0.95 -0.22,-2.16 0.73,-2.71 l 24.06,-13.89 c 12.4,-7.16 25.41,-13.36 38.47,-18.39 l 0.08,-177.02 c 0,-1.1 0.89,-1.98 1.98,-1.98 h 51.86 v -6.56 c 0,-1.1 0.89,-1.98 1.98,-1.98 h 51.94 v -23.5 c 0,-1.1 0.89,-1.98 1.98,-1.98 h 55.56 c 1.1,0 1.98,0.89 1.98,1.98 v 25.26 l 63.79,4.46 v 0 l -5.6,80.89 c -0.14,2.05 2.86,2.41 3.21,0.39 l 7.91,-45.1 c 0.19,-1.08 1.22,-1.8 2.3,-1.61 l 54.71,9.65 c 1.08,0.19 1.8,1.22 1.61,2.3 l -6.59,37.36 51.29,9.04 c 1.08,0.19 1.8,1.22 1.61,2.3 v 0 z"
       id="path1-7"
       style="stroke-width:0.850394;stroke-dasharray:none"
       sodipodi:nodetypes="cccccsscsssscssssccccccccscccccsscccccccccccsccssssssssssssssssssssssssssssssssssssssssssssssssssccccccccccccccssssscccccccccscsscsssscccccccccccscc" /></g><g
     id="CaHole_Mid-2"
     data-name="CaHole Mid"
     style="stroke-width:0.850394;stroke-dasharray:none"
     transform="matrix(0,-0.35277746,0.35277746,0,383.7929,481.53632)"><path
       class="cls-1"
       d="m 563.22402,-224.81099 c -1.08,0.19 -1.8,1.22 -1.61,2.3 l 24.44,138.559991 c 0.19,1.08 1.22,1.8 2.3,1.61 l 51.13,-9.01999 2.1,11.90999 c 0.19,1.08 1.22,1.8 2.3,1.61 l 85.32,-15.03999 c 1.08,-0.19 1.8,-1.22 1.61,-2.3 l -1.42,-8.030001 25.02,-1.75 h 29.11 v 37.019991 c 0,1.09 0.88,1.98 1.98,1.98 h 43.41 c 15.41,0.06 32.05,2.36 48.07,6.65 14.84,3.97 30.33,10.49 44.82,18.86 l 0.51,0.3 c 0.25,0.14 0.44,0.25 0.62,0.36 l 0.22,0.13 c 1.22,0.72 2.44,1.46 3.72,2.27 l 0.19,0.15 0.04,0.02 0.34,0.25 0.57,0.29 31.29,18.18 c 0.95,0.56 2.17,0.23 2.72,-0.72 l 9.3,-16.14 h 47.89998 c 1.09,0 1.98,-0.88 1.98,-1.98 V -339.04099 c 0,-1.09 -0.88,-1.98 -1.98,-1.98 H 828.70402 v -9.21 c 0,-1.09 -0.88,-1.98 -1.98,-1.98 h -86.81 c -1.09,0 -1.98,0.88 -1.98,1.98 v 9.2 h -113.41 c -1.09,0 -1.98,0.88 -1.98,1.98 v 63.22 l -13.26,2.34 c -1.08,0.19 -1.8,1.22 -1.61,2.3 l 6.59,37.38 -51.04,9.01 v 0 z m 71.32,-107.32 c 0,1.72 -1.4,3.12 -3.12,3.12 -1.72,0 -3.12,-1.4 -3.12,-3.12 0,-1.72 1.4,-3.12 3.12,-3.12 1.72,0 3.12,1.4 3.12,3.12 z m 112.34,-3.07 c 0,1.72 -1.4,3.12 -3.12,3.12 -1.72,0 -3.12,-1.4 -3.12,-3.12 0,-1.72 1.4,-3.12 3.12,-3.12 1.72,0 3.12,1.4 3.12,3.12 z m 79.22,0 c 0,1.72 -1.4,3.12 -3.12,3.12 -1.72,0 -3.12,-1.4 -3.12,-3.12 0,-1.72 1.4,-3.12 3.12,-3.12 1.72,0 3.12,1.4 3.12,3.12 z m 189.28998,3.1 c 0,1.72 -1.4,3.12 -3.12,3.12 -1.72,0 -3.12,-1.4 -3.12,-3.12 0,-1.72 1.4,-3.12 3.12,-3.12 1.72,0 3.12,1.4 3.12,3.12 z m 1.83,65.56 c 0,1.72 -1.4,3.12 -3.12,3.12 -1.72,0 -3.12,-1.4 -3.12,-3.12 0,-1.72 1.4,-3.12 3.12,-3.12 1.72,0 3.12,1.4 3.12,3.12 z m -3.12,106.41 c -1.72,0 -3.12,-1.4 -3.12,-3.12 0,-1.72 1.4,-3.12 3.12,-3.12 1.72,0 3.12,1.4 3.12,3.12 0,1.72 -1.4,3.12 -3.12,3.12 z m -4.96,115.839991 c 0,-1.72 1.4,-3.12 3.12,-3.12 1.72,0 3.12,1.4 3.12,3.12 0,1.72 -1.4,3.12 -3.12,3.12 -1.72,0 -3.12,-1.4 -3.12,-3.12 z m -219.90998,-30.54 c 0,-1.72 1.4,-3.12 3.12,-3.12 1.72,0 3.12,1.4 3.12,3.12 0,1.72 -1.4,3.12 -3.12,3.12 -1.72,0 -3.12,-1.4 -3.12,-3.12 z m -71.55,-25.569991 c 0,-1.72 1.4,-3.12 3.12,-3.12 1.72,0 3.12,1.4 3.12,3.12 0,1.720001 -1.4,3.120001 -3.12,3.120001 -1.72,0 -3.12,-1.4 -3.12,-3.120001 z m -127.24,8.120001 c 0,-1.72 1.4,-3.12 3.12,-3.12 1.72,0 3.12,1.4 3.12,3.12 0,1.72 -1.4,3.12 -3.12,3.12 -1.72,0 -3.12,-1.4 -3.12,-3.12 z m -11.14,-117.640001 c -0.19,-1.08 0.53,-2.11 1.61,-2.3 l 51.29,-9.04 -6.59,-37.36 c -0.19,-1.08 0.53,-2.11 1.61,-2.3 l 54.71,-9.65 c 1.08,-0.19 2.11,0.53 2.3,1.61 l 7.91,45.1 c 0.35,2.02 3.35,1.66 3.21,-0.39 l -5.6,-80.89 v 0 l 63.79,-4.46 v -25.26 c 0,-1.09 0.88,-1.98 1.98,-1.98 h 55.56 c 1.09,0 1.98,0.88 1.98,1.98 v 23.49 h 51.94 c 1.09,0 1.98,0.88 1.98,1.98 v 6.56 h 51.86 c 1.09,0 1.98,0.88 1.98,1.98 l 0.08,177.02 c 13.06,5.03 26.07,11.23 38.47,18.39 l 24.06,13.890001 c 0.95,0.55 1.28,1.76 0.73,2.71 l -27.78,48.11999 c -0.55,0.95 -1.76,1.28 -2.71,0.73 l -24.06,-13.89 c -15.7,-9.07 -32.47,-16.13 -48.49,-20.42 -17.47,-4.68 -35.51,-7.15 -52.18,-7.15 h -27.78 c -1.09,0 -1.98,-0.88 -1.98,-1.98 v -55.559991 c 0,-1.09 0.88,-1.98 1.98,-1.98 h 6.38 v -28.2 h -48.63 l 1.76,25.16 c 0.08,1.1 -0.75,2.04 -1.84,2.12 l -51.58,3.61 5.39,30.54 c 0.19,1.08 -0.53,2.11 -1.61,2.3 l -54.71,9.650001 c -1.08,0.19 -2.11,-0.53 -2.3,-1.61 l -2.11,-11.980001 -51.22,9.03 c -1.08,0.19 -2.11,-0.53 -2.3,-1.61 l -19.1,-107.95 v 0 z"
       id="path2-5"
       style="stroke-width:0.850394;stroke-dasharray:none"
       sodipodi:nodetypes="ccccccccccccsscccccsccccccccsssscsssscsscccccccssssssssssssssssssssssssssssssssssssssssssssssssssccccccccccccsssscsscscccccccccssssscccccccccccccccc" /></g><g
     id="Acrylcase-8"
     transform="matrix(0,0.35277687,-0.35277687,0,122.50292,-67.366923)"
     style="stroke-width:0.85039589;stroke-dasharray:none"><path
       class="cls-1"
       d="m 968.34,127.55 -51.04,-9.01 6.59,-37.38 c 0.19,-1.08 -0.53,-2.11 -1.61,-2.3 L 909.02,76.52 V 13.3 c 0,-1.1 -0.89,-1.98 -1.98,-1.98 H 793.63 v -9.2 c 0,-1.1 -0.89,-1.98 -1.98,-1.98 h -86.81 c -1.1,0 -1.98,0.89 -1.98,1.98 v 9.21 H 601.53 V 125.12 H 543.47 V 11.33 h -31.11 c -1.1,0 -1.98,0.89 -1.98,1.98 v 181.46 l 14.74,14.74 h 11.85 v 17.33 h 25.77 v 25.94 h -37.61 l -14.74,15.8 v 46.45 c 0,1.1 0.89,1.98 1.98,1.98 h 47.9 l 9.3,16.14 c 0.55,0.95 1.77,1.28 2.72,0.72 l 31.29,-18.18 0.57,-0.29 0.34,-0.25 0.04,-0.02 0.19,-0.15 c 1.28,-0.81 2.5,-1.55 3.72,-2.27 l 0.22,-0.13 c 0.18,-0.11 0.37,-0.22 0.62,-0.36 l 0.51,-0.3 c 14.49,-8.37 29.98,-14.89 44.82,-18.86 16.02,-4.29 32.66,-6.59 48.07,-6.65 h 43.41 c 1.1,0 1.98,-0.89 1.98,-1.98 v -37.02 h 29.11 l 25.02,1.75 -1.42,8.03 c -0.19,1.08 0.53,2.11 1.61,2.3 l 85.32,15.04 c 1.08,0.19 2.11,-0.53 2.3,-1.61 l 2.1,-11.91 51.13,9.02 c 1.08,0.19 2.11,-0.53 2.3,-1.61 l 24.44,-138.56 c 0.19,-1.08 -0.53,-2.11 -1.61,-2.3 h -0.03 z M 519.29,311.16 c -1.72,0 -3.12,-1.4 -3.12,-3.12 0,-1.72 1.4,-3.12 3.12,-3.12 1.72,0 3.12,1.4 3.12,3.12 0,1.72 -1.4,3.12 -3.12,3.12 z m 14.05,-48.77 c -1.64,0 -2.98,-1.33 -2.98,-2.98 0,-1.65 1.33,-2.98 2.98,-2.98 1.65,0 2.98,1.33 2.98,2.98 0,1.65 -1.33,2.98 -2.98,2.98 z m 0,-231.11 c 1.64,0 2.98,1.33 2.98,2.98 0,1.65 -1.33,2.98 -2.98,2.98 -1.65,0 -2.98,-1.33 -2.98,-2.98 0,-1.65 1.33,-2.98 2.98,-2.98 z m -15.89,160.91 c -1.72,0 -3.12,-1.4 -3.12,-3.12 0,-1.72 1.4,-3.12 3.12,-3.12 1.72,0 3.12,1.4 3.12,3.12 0,1.72 -1.4,3.12 -3.12,3.12 z m 0,-103.29 c -1.72,0 -3.12,-1.4 -3.12,-3.12 0,-1.72 1.4,-3.12 3.12,-3.12 1.72,0 3.12,1.4 3.12,3.12 0,1.72 -1.4,3.12 -3.12,3.12 z m 1.83,-65.56 c -1.72,0 -3.12,-1.4 -3.12,-3.12 0,-1.72 1.4,-3.12 3.12,-3.12 1.72,0 3.12,1.4 3.12,3.12 0,1.72 -1.4,3.12 -3.12,3.12 z m 189.3,-9.31 c 1.72,0 3.12,1.4 3.12,3.12 0,1.72 -1.4,3.12 -3.12,3.12 -1.72,0 -3.12,-1.4 -3.12,-3.12 0,-1.72 1.4,-3.12 3.12,-3.12 z m 3.69,20.37 c 0,1.64 -1.33,2.98 -2.98,2.98 -1.65,0 -2.98,-1.33 -2.98,-2.98 0,-1.65 1.33,-2.98 2.98,-2.98 1.65,0 2.98,1.33 2.98,2.98 z m 26.94,246.24 c -1.72,0 -3.12,-1.4 -3.12,-3.12 0,-1.72 1.4,-3.12 3.12,-3.12 1.72,0 3.12,1.4 3.12,3.12 0,1.72 -1.4,3.12 -3.12,3.12 z m -17.69,-71.43 c -32.95,0 -59.67,-26.71 -59.67,-59.67 0,-32.96 26.71,-59.67 59.67,-59.67 32.96,0 59.67,26.71 59.67,59.67 0,32.96 -26.71,59.67 -59.67,59.67 z M 784.69,17.14 c 0,-1.72 1.4,-3.12 3.12,-3.12 1.72,0 3.12,1.4 3.12,3.12 0,1.72 -1.4,3.12 -3.12,3.12 -1.72,0 -3.12,-1.4 -3.12,-3.12 z m 6.13,20.1 c -1.64,0 -2.98,-1.33 -2.98,-2.98 0,-1.65 1.33,-2.98 2.98,-2.98 1.65,0 2.98,1.33 2.98,2.98 0,1.65 -1.33,2.98 -2.98,2.98 z m 19.94,217.82 c -1.72,0 -3.12,-1.4 -3.12,-3.12 0,-1.72 1.4,-3.12 3.12,-3.12 1.72,0 3.12,1.4 3.12,3.12 0,1.72 -1.4,3.12 -3.12,3.12 z m 1.06,-28.6 c -1.64,0 -2.98,-1.33 -2.98,-2.98 0,-1.65 1.33,-2.98 2.98,-2.98 1.65,0 2.98,1.33 2.98,2.98 0,1.65 -1.33,2.98 -2.98,2.98 z M 900.14,23.33 c -1.72,0 -3.12,-1.4 -3.12,-3.12 0,-1.72 1.4,-3.12 3.12,-3.12 1.72,0 3.12,1.4 3.12,3.12 0,1.72 -1.4,3.12 -3.12,3.12 z M 938,263.19 c -1.72,0 -3.12,-1.4 -3.12,-3.12 0,-1.72 1.4,-3.12 3.12,-3.12 1.72,0 3.12,1.4 3.12,3.12 0,1.72 -1.4,3.12 -3.12,3.12 z"
       id="path1-4"
       style="stroke-width:0.850396;stroke-dasharray:none"
       sodipodi:nodetypes="cccccsscsssscccccssccccccccssccccccccccccccssccccccccccccccssssssssssssssssssssssssssssssssssssssssssssssssssssssssssssssssssssssssssssssss" /></g><g
     id="Acrylcase-2-2"
     data-name="Acrylcase"
     transform="matrix(0.35277687,0,0,0.35277687,5.6290947,4.7480147)"
     style="stroke-width:0.85039589;stroke-dasharray:none"><path
       class="cls-1"
       d="M 1.81,127.56 H 1.78 c -1.08,0.19 -1.8,1.22 -1.61,2.3 l 24.44,138.56 c 0.19,1.08 1.22,1.8 2.3,1.61 l 51.13,-9.02 2.1,11.91 c 0.19,1.08 1.22,1.8 2.3,1.61 l 85.32,-15.04 c 1.08,-0.19 1.8,-1.22 1.61,-2.3 l -1.42,-8.03 25.02,-1.75 h 29.11 v 37.02 c 0,1.09 0.88,1.98 1.98,1.98 h 43.41 c 15.41,0.06 32.05,2.36 48.07,6.65 14.84,3.97 30.33,10.49 44.82,18.86 l 0.51,0.3 c 0.25,0.14 0.44,0.25 0.62,0.36 l 0.22,0.13 c 1.22,0.72 2.44,1.46 3.72,2.27 l 0.19,0.15 0.04,0.02 0.34,0.25 0.57,0.29 31.29,18.18 c 0.95,0.56 2.17,0.23 2.72,-0.72 l 9.3,-16.14 h 47.9 c 1.09,0 1.98,-0.88 1.98,-1.98 v -46.45 l -14.74,-15.8 h -37.61 v -25.94 h 25.77 v -17.33 h 11.85 l 14.74,-14.74 V 13.31 c 0,-1.09 -0.88,-1.98 -1.98,-1.98 H 426.68 V 125.12 H 368.62 V 11.33 H 267.29 V 2.12 c 0,-1.09 -0.88,-1.98 -1.98,-1.98 H 178.5 c -1.09,0 -1.98,0.88 -1.98,1.98 v 9.2 H 63.11 c -1.09,0 -1.98,0.88 -1.98,1.98 v 63.22 l -13.26,2.34 c -1.08,0.19 -1.8,1.22 -1.61,2.3 l 6.59,37.38 -51.04,9.01 v 0 z m 449.05,183.62 c -1.72,0 -3.12,-1.4 -3.12,-3.12 0,-1.72 1.4,-3.12 3.12,-3.12 1.72,0 3.12,1.4 3.12,3.12 0,1.72 -1.4,3.12 -3.12,3.12 z m -17.03,-51.75 c 0,-1.65 1.33,-2.98 2.98,-2.98 1.65,0 2.98,1.33 2.98,2.98 0,1.65 -1.34,2.98 -2.98,2.98 -1.64,0 -2.98,-1.33 -2.98,-2.98 z m 5.96,-225.15 c 0,1.65 -1.33,2.98 -2.98,2.98 -1.65,0 -2.98,-1.33 -2.98,-2.98 0,-1.65 1.34,-2.98 2.98,-2.98 1.64,0 2.98,1.33 2.98,2.98 z m 9.79,154.81 c 0,-1.72 1.4,-3.12 3.12,-3.12 1.72,0 3.12,1.4 3.12,3.12 0,1.72 -1.4,3.12 -3.12,3.12 -1.72,0 -3.12,-1.4 -3.12,-3.12 z m 0,-103.29 c 0,-1.72 1.4,-3.12 3.12,-3.12 1.72,0 3.12,1.4 3.12,3.12 0,1.72 -1.4,3.12 -3.12,3.12 -1.72,0 -3.12,-1.4 -3.12,-3.12 z m 1.29,-62.44 c -1.72,0 -3.12,-1.4 -3.12,-3.12 0,-1.72 1.4,-3.12 3.12,-3.12 1.72,0 3.12,1.4 3.12,3.12 0,1.72 -1.4,3.12 -3.12,3.12 z M 264.7,17.15 c 0,1.72 -1.4,3.12 -3.12,3.12 -1.72,0 -3.12,-1.4 -3.12,-3.12 0,-1.72 1.4,-3.12 3.12,-3.12 1.72,0 3.12,1.4 3.12,3.12 z m -3.83,14.27 c 1.65,0 2.98,1.33 2.98,2.98 0,1.65 -1.33,2.98 -2.98,2.98 -1.65,0 -2.98,-1.34 -2.98,-2.98 0,-1.64 1.33,-2.98 2.98,-2.98 z m -33.04,246.1 c 0,-1.72 1.4,-3.12 3.12,-3.12 1.72,0 3.12,1.4 3.12,3.12 0,1.72 -1.4,3.12 -3.12,3.12 -1.72,0 -3.12,-1.4 -3.12,-3.12 z M 188.97,149.54 c 0,-32.96 26.71,-59.67 59.67,-59.67 32.96,0 59.67,26.71 59.67,59.67 0,32.96 -26.72,59.67 -59.67,59.67 -32.96,0 -59.67,-26.71 -59.67,-59.67 z M 182.35,20.26 c -1.72,0 -3.12,-1.4 -3.12,-3.12 0,-1.72 1.4,-3.12 3.12,-3.12 1.72,0 3.12,1.4 3.12,3.12 0,1.72 -1.4,3.12 -3.12,3.12 z m -5.99,14 c 0,-1.65 1.33,-2.98 2.98,-2.98 1.65,0 2.98,1.33 2.98,2.98 0,1.65 -1.34,2.98 -2.98,2.98 -1.64,0 -2.98,-1.33 -2.98,-2.98 z m -20.08,217.68 c 0,-1.72 1.4,-3.12 3.12,-3.12 1.72,0 3.12,1.4 3.12,3.12 0,1.72 -1.4,3.12 -3.12,3.12 -1.72,0 -3.12,-1.4 -3.12,-3.12 z m -0.92,-28.46 c 0,-1.65 1.33,-2.98 2.98,-2.98 1.65,0 2.98,1.33 2.98,2.98 0,1.65 -1.34,2.98 -2.98,2.98 -1.64,0 -2.98,-1.33 -2.98,-2.98 z M 66.89,20.21 c 0,-1.72 1.4,-3.12 3.12,-3.12 1.72,0 3.12,1.4 3.12,3.12 0,1.72 -1.4,3.12 -3.12,3.12 -1.72,0 -3.12,-1.4 -3.12,-3.12 z M 29.03,260.08 c 0,-1.72 1.4,-3.12 3.12,-3.12 1.72,0 3.12,1.4 3.12,3.12 0,1.72 -1.4,3.12 -3.12,3.12 -1.72,0 -3.12,-1.4 -3.12,-3.12 z"
       id="path2-2"
       style="stroke-width:0.850396;stroke-dasharray:none"
       sodipodi:nodetypes="cccccccccccccssccccccccccccccssccccccccsscccccsssscsscccccccssssssssssssssssssssssssssssssssssssssssssssssssssssssssssssssssssssssssssssssss" /></g><path
     class="cls-1"
     d="m 242.02023,319.05572 c 0,0.38805 0.31397,0.6985 0.69849,0.6985 h 95.43626 c 0.38806,0 0.6985,-0.31397 0.6985,-0.6985 v -14.57667 l -13.36313,7.71167 c -0.33513,0.19402 -0.76199,0.0776 -0.95602,-0.25753 l -4.90004,-8.48777 c -2.52587,-4.37441 -4.71308,-8.96402 -6.48754,-13.57126 l -62.44826,-0.0282 c -0.38805,0 -0.69849,-0.31397 -0.69849,-0.6985 v -18.29492 h -2.3142 c -0.38806,0 -0.6985,-0.31396 -0.6985,-0.69849 v -18.32314 l -4.9706,0.0141 v 67.21071 z m 1.56279,-1.90498 c 0,-0.57856 0.46919,-1.05127 1.05127,-1.05127 0.58208,0 1.05127,0.46919 1.05127,1.05127 0,0.58207 -0.46919,1.05127 -1.05127,1.05127 -0.58208,0 -1.05127,-0.4692 -1.05127,-1.05127 z m 81.52987,0 c 0,0.57855 -0.4692,1.05127 -1.05127,1.05127 -0.58208,0 -1.05127,-0.4692 -1.05127,-1.05127 0,-0.58208 0.46919,-1.05127 1.05127,-1.05127 0.58207,0 1.05127,0.46919 1.05127,1.05127 z m -79.39911,-62.07432 c 0,0.57855 -0.46919,1.05127 -1.05127,1.05127 -0.58208,0 -1.05127,-0.46919 -1.05127,-1.05127 0,-0.58208 0.46919,-1.05127 1.05127,-1.05127 0.58208,0 1.05127,0.46919 1.05127,1.05127 z"
     id="path1"
     style="stroke-width:0.3;stroke-dasharray:none"
     sodipodi:nodetypes="csssccccccscssccccsssssssssssssss" /><path
     class="cls-1"
     d="m 378.68297,181.96378 8.87582,0.62089 v -17.15546 h -9.94826 v 2.25071 c 0,0.38805 -0.31397,0.69849 -0.69849,0.69849 l -6.50165,0.0247 v 15.98072 l -1.05832,15.09172 7.31303,1.33349 1.27351,-18.19614 c 0.0282,-0.38453 0.35984,-0.67733 0.74789,-0.64911 v 0 z m -4.30738,14.44262 c 0,0.57855 -0.4692,1.05127 -1.05127,1.05127 -0.58208,0 -1.05127,-0.46919 -1.05127,-1.05127 0,-0.58208 0.46919,-1.05127 1.05127,-1.05127 0.58207,0 1.05127,0.46919 1.05127,1.05127 z m 0.77257,-11.57456 c 0,0.57855 -0.46919,1.05127 -1.05127,1.05127 -0.58208,0 -1.05127,-0.46919 -1.05127,-1.05127 0,-0.58208 0.46919,-1.05127 1.05127,-1.05127 0.58208,0 1.05127,0.46919 1.05127,1.05127 z"
     id="path2"
     style="stroke-width:0.3;stroke-dasharray:none"
     sodipodi:nodetypes="ccccsccccccsccssssssssss" /><path
     class="cls-1"
     d="m 162.16839,357.5153 v -40.00823 l -5.59502,-0.0106 L 155,340 v 0 l -28.53599,-1.97554 c -0.72318,-0.0494 -0.85018,1.00894 -0.13758,1.13241 l 15.91016,2.79045 c 0.381,0.067 0.635,0.43039 0.56797,0.81138 l -2.72342,15.45509 h 21.38875 c 0.38806,0 0.6985,-0.31397 0.6985,-0.69849 z m -3.65123,-35.50329 c 0,-0.57855 0.4692,-1.05127 1.05127,-1.05127 0.58208,0 1.05127,0.46919 1.05127,1.05127 0,0.58208 -0.46919,1.05127 -1.05127,1.05127 -0.58207,0 -1.05127,-0.46919 -1.05127,-1.05127 z m -1.00893,14.84125 c 0,-0.57855 0.46919,-1.05127 1.05127,-1.05127 0.58208,0 1.05127,0.46919 1.05127,1.05127 0,0.58208 -0.46919,1.05127 -1.05127,1.05127 -0.58208,0 -1.05127,-0.46919 -1.05127,-1.05127 z"
     id="path3-1"
     style="stroke-width:0.3;stroke-dasharray:none" /><path
     class="cls-1"
     d="m 395.70203,394.30151 v -67.21072 l -4.97061,-0.0141 v 18.32314 c 0,0.38452 -0.31044,0.69849 -0.69849,0.69849 h -2.31421 v 18.29492 c 0,0.38453 -0.31044,0.6985 -0.69849,0.6985 l -62.44826,0.0282 c -1.77446,4.60724 -3.96166,9.19685 -6.48753,13.57126 l -4.90005,8.48777 c -0.19403,0.33513 -0.62088,0.45155 -0.95602,0.25752 l -13.36312,-7.71165 v 14.57667 c 0,0.38452 0.31044,0.69849 0.69849,0.69849 H 395 c 0.38453,0 0.6985,-0.31044 0.6985,-0.69849 v 0 z m -2.58937,-0.85372 c -0.58208,0 -1.05127,-0.46919 -1.05127,-1.05127 0,-0.58208 0.46919,-1.05127 1.05127,-1.05127 0.58208,0 1.05127,0.47272 1.05127,1.05127 0,0.57855 -0.46919,1.05127 -1.05127,1.05127 z m -79.42733,-2.10254 c 0.58208,0 1.05127,0.46919 1.05127,1.05127 0,0.58208 -0.46919,1.05127 -1.05127,1.05127 -0.58208,0 -1.05127,-0.47272 -1.05127,-1.05127 0,-0.57855 0.46919,-1.05127 1.05127,-1.05127 z m 79.37088,-62.07079 c 0.58208,0 1.05127,0.4692 1.05127,1.05127 0,0.58208 -0.46919,1.05127 -1.05127,1.05127 -0.58208,0 -1.05127,-0.47271 -1.05127,-1.05127 0,-0.57855 0.46919,-1.05127 1.05127,-1.05127 z"
     id="path4-77"
     style="stroke-width:0.3;stroke-dasharray:none"
     sodipodi:nodetypes="cccsscsccccccssssccsssssssssssssss" /><path
     class="cls-1"
     d="m 373.89816,231.53458 c 0.38805,-0.0282 0.71966,0.26458 0.74788,0.6491 l 1.27352,18.19615 7.31303,-1.33349 -1.05832,-15.09173 V 217.9739 l -6.50165,-0.0247 c -0.38453,0 -0.69849,-0.31045 -0.69849,-0.6985 V 215 h -9.94826 v 17.15545 l 8.87582,-0.62088 v 0 z m 5.33396,13.39134 c 0.58208,0 1.05127,0.46919 1.05127,1.05127 0,0.58208 -0.46919,1.05127 -1.05127,1.05127 -0.58208,0 -1.05127,-0.47272 -1.05127,-1.05127 0,-0.57855 0.46919,-1.05127 1.05127,-1.05127 z m -0.77258,-11.57455 c 0.58208,0 1.05127,0.46919 1.05127,1.05127 0,0.58208 -0.46919,1.05127 -1.05127,1.05127 -0.58208,0 -1.05127,-0.47272 -1.05127,-1.05127 0,-0.57855 0.46919,-1.05127 1.05127,-1.05127 z"
     id="path5-5"
     style="stroke-width:0.3;stroke-dasharray:none"
     sodipodi:nodetypes="cccccccsccccccssssssssss" /><path
     class="cls-1"
     d="M 145,278.61124 V 300 l 15.45508,-2.72342 c 0.381,-0.067 0.74435,0.18697 0.81138,0.56797 l 2.79045,15.91016 c 0.12347,0.7126 1.1818,0.5856 1.13241,-0.13759 l -1.97554,-28.53598 v 0 l 22.50353,-1.57338 -0.0106,-5.59501 h -40.00823 c -0.38452,0 -0.69849,0.31044 -0.69849,0.69849 z m 35.15052,1.90146 c 0,-0.58208 0.46919,-1.05127 1.05127,-1.05127 0.58207,0 1.05127,0.46919 1.05127,1.05127 0,0.58208 -0.47272,1.05127 -1.05127,1.05127 -0.57856,0 -1.05127,-0.46919 -1.05127,-1.05127 z m -14.84126,1.00894 c 0,-0.58208 0.4692,-1.05127 1.05127,-1.05127 0.58208,0 1.05127,0.46919 1.05127,1.05127 0,0.58208 -0.47271,1.05127 -1.05127,1.05127 -0.57855,0 -1.05127,-0.46919 -1.05127,-1.05127 z"
     id="path6-3"
     style="stroke-width:0.3;stroke-dasharray:none" /></svg>
